Coordinates
version=1
nRows=14
nColumns=38
inDegrees=no

Units are S.I. units (second, meters, Newtons, ...)
If the header above contains a line with 'inDegrees', this indicates whether rotational values are in degrees (yes) or radians (no).

endheader
time	pelvis_tilt	pelvis_list	pelvis_rotation	pelvis_tx	pelvis_ty	pelvis_tz	hip_flexion_r	hip_adduction_r	hip_rotation_r	knee_angle_r	ankle_angle_r	subtalar_angle_r	mtp_angle_r	hip_flexion_l	hip_adduction_l	hip_rotation_l	knee_angle_l	ankle_angle_l	subtalar_angle_l	mtp_angle_l	lumbar_extension	lumbar_bending	lumbar_rotation	arm_flex_r	arm_add_r	arm_rot_r	elbow_flex_r	pro_sup_r	wrist_flex_r	wrist_dev_r	arm_flex_l	arm_add_l	arm_rot_l	elbow_flex_l	pro_sup_l	wrist_flex_l	wrist_dev_l
20	0.0426618	1.02356	1.56179	0.711061	0.067302	0.688216	1.53379	-0.562946	-0.348987	1.74697	0.494381	0	0	1.55176	-0.498838	-0.25869	1.74465	0.523599	0	0	-0.526069	-0.00459011	0.0963459	1.19238	-0.555626	0.166978	1.0607	0.799776	0	0	1.38108	-0.426117	0.508837	0.88527	0.748021	0	0
20.01	0.0443781	1.02446	1.55923	0.710931	0.068195	0.690016	1.52682	-0.561938	-0.353046	1.74223	0.494232	0	0	1.54641	-0.498982	-0.259233	1.74034	0.523599	0	0	-0.525093	-0.00494123	0.0961324	1.19163	-0.559225	0.177088	1.05155	0.815666	0	0	1.38037	-0.432946	0.522675	0.885123	0.759456	0	0
20.02	0.0452557	1.02556	1.55753	0.710728	0.0691838	0.692131	1.51921	-0.561299	-0.35715	1.7367	0.493816	0	0	1.54005	-0.498854	-0.260535	1.73548	0.523599	0	0	-0.52407	-0.00570988	0.0949972	1.19129	-0.56322	0.190948	1.04094	0.82516	0	0	1.37884	-0.440795	0.536048	0.885635	0.771831	0	0
20.03	0.0458928	1.02669	1.55598	0.710493	0.0701929	0.69453	1.51098	-0.560487	-0.361583	1.73021	0.493159	0	0	1.53295	-0.49866	-0.262267	1.72987	0.523599	0	0	-0.52286	-0.00664088	0.0934223	1.1918	-0.567696	0.208142	1.02869	0.833682	0	0	1.37626	-0.44967	0.548305	0.887219	0.784653	0	0
20.04	0.0460811	1.02784	1.55451	0.710269	0.0712485	0.69722	1.5022	-0.55918	-0.366155	1.72275	0.49239	0	0	1.52469	-0.498643	-0.264973	1.72323	0.523599	0	0	-0.521383	-0.00799321	0.0916684	1.19272	-0.57238	0.227578	1.01539	0.842636	0	0	1.37222	-0.459081	0.557896	0.889724	0.794391	0	0
20.05	0.0453614	1.0292	1.55364	0.710022	0.0723584	0.700237	1.4928	-0.557585	-0.37046	1.71433	0.491593	0	0	1.51474	-0.49865	-0.26926	1.71533	0.523599	0	0	-0.519949	-0.0099623	0.0896704	1.19393	-0.577409	0.249202	1.00174	0.850251	0	0	1.36649	-0.46854	0.564012	0.893423	0.799864	0	0
20.06	0.0440296	1.03091	1.55323	0.709695	0.0735077	0.703591	1.48267	-0.555854	-0.374502	1.70501	0.490551	0	0	1.50315	-0.498447	-0.274887	1.70614	0.523599	0	0	-0.518691	-0.0120895	0.0875317	1.19572	-0.582775	0.27419	0.987945	0.851661	0	0	1.35853	-0.477451	0.566112	0.897362	0.802777	0	0
20.07	0.0421235	1.03272	1.55356	0.709311	0.0747062	0.707287	1.47204	-0.554194	-0.378277	1.6949	0.489225	0	0	1.49028	-0.497665	-0.281607	1.69564	0.523599	0	0	-0.517395	-0.0142932	0.0851681	1.19757	-0.587675	0.300239	0.973711	0.85025	0	0	1.34885	-0.485856	0.565246	0.901409	0.805002	0	0
20.08	0.0398098	1.03463	1.5545	0.708876	0.0759469	0.711336	1.46088	-0.552657	-0.381961	1.68394	0.487212	0	0	1.47645	-0.496305	-0.289052	1.68404	0.523599	0	0	-0.51613	-0.0164859	0.0827612	1.19982	-0.591884	0.325533	0.958038	0.848761	0	0	1.33815	-0.493687	0.563593	0.904564	0.805682	0	0
20.09	0.0373411	1.03678	1.55576	0.708374	0.0772306	0.715741	1.44886	-0.551164	-0.385742	1.67199	0.484771	0	0	1.46174	-0.494583	-0.296933	1.67154	0.523598	0	0	-0.515071	-0.0184808	0.0805718	1.20244	-0.595381	0.349884	0.94136	0.848909	0	0	1.3268	-0.500611	0.562189	0.906041	0.805004	0	0
20.1	0.0348034	1.03887	1.55723	0.707813	0.0785411	0.720454	1.43633	-0.549585	-0.389771	1.65908	0.481595	0	0	1.4466	-0.492623	-0.305108	1.65816	0.523598	0	0	-0.513577	-0.0204084	0.0788254	1.20329	-0.598214	0.369915	0.926207	0.855068	0	0	1.3146	-0.506106	0.560443	0.905587	0.805221	0	0
20.11	0.0319208	1.04107	1.55887	0.707243	0.0798759	0.725478	1.42328	-0.547649	-0.393783	1.64513	0.477831	0	0	1.43063	-0.490574	-0.313881	1.6438	0.523598	0	0	-0.511657	-0.022718	0.0775676	1.20124	-0.601197	0.385447	0.913618	0.87377	0	0	1.30127	-0.510332	0.557485	0.903041	0.808012	0	0
20.12	0.0290972	1.04365	1.56043	0.706653	0.0812544	0.730829	1.40918	-0.545457	-0.398078	1.63019	0.473922	0	0	1.41356	-0.488425	-0.32296	1.62858	0.523598	0	0	-0.509619	-0.0252701	0.0769444	1.19557	-0.604624	0.395147	0.903991	0.900743	0	0	1.28683	-0.513359	0.55329	0.899095	0.813384	0	0
20.13	0.0268065	1.04677	1.56167	0.706024	0.0826728	0.736504	1.39367	-0.543137	-0.403055	1.61432	0.469563	0	0	1.39534	-0.485896	-0.33218	1.61225	0.523598	0	0	-0.507853	-0.0275737	0.0768165	1.18689	-0.607487	0.398992	0.895075	0.946285	0	0	1.27121	-0.51506	0.547231	0.893528	0.822862	0	0
